<?xml version="1.0"?>
<svg xmlns="http://www.w3.org/2000/svg" xmlns:lc="https://librecad.org" xmlns:xlink="http://www.w3.org/1999/xlink" width="150in" height="170in" viewBox="0 0 150 170">
    <g lc:layername="0" lc:is_locked="false" lc:is_construction="false" fill="none" stroke="black" stroke-width="1">
        <line x1="30" y1="60" x2="100" y2="60"/>
        <line x1="100" y1="60" x2="100" y2="100"/>
        <line x1="100" y1="100" x2="30" y2="100"/>
        <line x1="30" y1="100" x2="30" y2="60"/>
        <line x1="0" y1="60" x2="0" y2="100"/>
        <line x1="0" y1="100" x2="20" y2="100"/>
        <line x1="20" y1="100" x2="20" y2="60"/>
        <line x1="20" y1="60" x2="0" y2="60"/>
        <line x1="130" y1="60" x2="130" y2="100"/>
        <line x1="130" y1="100" x2="150" y2="100"/>
        <line x1="150" y1="100" x2="150" y2="60"/>
        <line x1="150" y1="60" x2="130" y2="60"/>
        <line x1="30" y1="50" x2="30" y2="30"/>
        <line x1="30" y1="30" x2="60" y2="30"/>
        <line x1="60" y1="30" x2="70" y2="30"/>
        <line x1="70" y1="30" x2="100" y2="30"/>
        <line x1="100" y1="30" x2="100" y2="50"/>
        <line x1="100" y1="50" x2="30" y2="50"/>
        <line x1="30" y1="110" x2="100" y2="110"/>
        <line x1="100" y1="110" x2="100" y2="130"/>
        <line x1="100" y1="130" x2="70" y2="130"/>
        <line x1="70" y1="130" x2="60" y2="130"/>
        <line x1="60" y1="130" x2="30" y2="130"/>
        <line x1="30" y1="130" x2="30" y2="110"/>
        <line x1="110" y1="0" x2="110" y2="40"/>
        <line x1="110" y1="40" x2="120" y2="40"/>
        <line x1="120" y1="40" x2="120" y2="0"/>
        <line x1="120" y1="0" x2="110" y2="0"/>
        <line x1="110" y1="170" x2="110" y2="130"/>
        <line x1="110" y1="130" x2="120" y2="130"/>
        <line x1="120" y1="130" x2="120" y2="170"/>
        <line x1="120" y1="170" x2="110" y2="170"/>
        <line x1="110" y1="120" x2="110" y2="50"/>
        <line x1="110" y1="50" x2="120" y2="50"/>
        <line x1="120" y1="50" x2="120" y2="120"/>
        <line x1="120" y1="120" x2="110" y2="120"/>
    </g>
</svg>
