<?xml version="1.0"?>
<svg xmlns="http://www.w3.org/2000/svg" xmlns:lc="http://www.librecad.org" xmlns:xlink="http://www.w3.org/1999/xlink" width="145in" height="144in" viewBox="0 0 145 144">
    <g lc:layername="0" lc:is_locked="false" lc:is_construction="false" fill="none" stroke="black" stroke-width="1">
        <line x1="60" y1="59" x2="60" y2="89"/>
        <line x1="60" y1="89" x2="90" y2="89"/>
        <line x1="90" y1="89" x2="90" y2="59"/>
        <line x1="90" y1="59" x2="60" y2="59"/>
        <line x1="60" y1="99" x2="60" y2="119"/>
        <line x1="60" y1="119" x2="90" y2="119"/>
        <line x1="90" y1="119" x2="90" y2="99"/>
        <line x1="90" y1="99" x2="60" y2="99"/>
        <line x1="50" y1="89" x2="50" y2="59"/>
        <line x1="50" y1="59" x2="30" y2="59"/>
        <line x1="30" y1="59" x2="30" y2="89"/>
        <line x1="30" y1="89" x2="50" y2="89"/>
        <line x1="100" y1="89" x2="100" y2="59"/>
        <line x1="100" y1="59" x2="120" y2="59"/>
        <line x1="120" y1="59" x2="120" y2="89"/>
        <line x1="120" y1="89" x2="100" y2="89"/>
        <line x1="90" y1="49" x2="60" y2="49"/>
        <line x1="60" y1="49" x2="60" y2="29"/>
        <line x1="60" y1="29" x2="90" y2="29"/>
        <line x1="90" y1="29" x2="90" y2="49"/>
        <line x1="40" y1="144" x2="100" y2="144"/>
        <line x1="40" y1="144" x2="40" y2="129"/>
        <line x1="100" y1="129" x2="100" y2="144"/>
        <line x1="130" y1="89" x2="130" y2="59"/>
        <line x1="145" y1="59" x2="130" y2="59"/>
        <line x1="145" y1="89" x2="145" y2="59"/>
        <line x1="130" y1="89" x2="145" y2="89"/>
        <line x1="0" y1="89" x2="0" y2="59"/>
        <line x1="15" y1="59" x2="0" y2="59"/>
        <line x1="15" y1="89" x2="15" y2="59"/>
        <line x1="0" y1="89" x2="15" y2="89"/>
        <line x1="40" y1="129" x2="55" y2="129"/>
        <line x1="85" y1="129" x2="100" y2="129"/>
        <line x1="55" y1="129" x2="85" y2="129"/>
        <line x1="46" y1="0" x2="106" y2="0"/>
        <line x1="46" y1="0" x2="46" y2="15"/>
        <line x1="106" y1="15" x2="106" y2="0"/>
        <line x1="46" y1="15" x2="61" y2="15"/>
        <line x1="91" y1="15" x2="106" y2="15"/>
        <line x1="61" y1="15" x2="91" y2="15"/>
    </g>
</svg>
