<?xml version="1.0"?>
<svg xmlns="http://www.w3.org/2000/svg" xmlns:lc="http://www.librecad.org" xmlns:xlink="http://www.w3.org/1999/xlink" width="185in" height="90in" viewBox="0 0 185 90">
    <g lc:layername="0" lc:is_locked="false" lc:is_construction="false" fill="none" stroke="black" stroke-width="1">
        <line x1="125" y1="30" x2="125" y2="60"/>
        <line x1="125" y1="60" x2="155" y2="60"/>
        <line x1="155" y1="60" x2="155" y2="30"/>
        <line x1="155" y1="30" x2="125" y2="30"/>
        <line x1="15" y1="30" x2="15" y2="60"/>
        <line x1="15" y1="60" x2="45" y2="60"/>
        <line x1="45" y1="60" x2="45" y2="30"/>
        <line x1="45" y1="30" x2="15" y2="30"/>
        <line x1="0" y1="15" x2="0" y2="75"/>
        <line x1="0" y1="75" x2="60" y2="75"/>
        <line x1="60" y1="75" x2="60" y2="15"/>
        <line x1="60" y1="15" x2="0" y2="15"/>
        <line x1="125" y1="70" x2="125" y2="90"/>
        <line x1="125" y1="90" x2="155" y2="90"/>
        <line x1="155" y1="90" x2="155" y2="70"/>
        <line x1="155" y1="70" x2="125" y2="70"/>
        <line x1="115" y1="60" x2="115" y2="30"/>
        <line x1="115" y1="30" x2="95" y2="30"/>
        <line x1="95" y1="30" x2="95" y2="60"/>
        <line x1="95" y1="60" x2="115" y2="60"/>
        <line x1="165" y1="60" x2="165" y2="30"/>
        <line x1="165" y1="30" x2="185" y2="30"/>
        <line x1="185" y1="30" x2="185" y2="60"/>
        <line x1="185" y1="60" x2="165" y2="60"/>
        <line x1="155" y1="20" x2="125" y2="20"/>
        <line x1="125" y1="20" x2="125" y2="0"/>
        <line x1="125" y1="0" x2="155" y2="0"/>
        <line x1="155" y1="0" x2="155" y2="20"/>
    </g>
</svg>
